<?xml version="1.0" encoding="UTF-8"?>
<svg id="Capa_2" data-name="Capa 2" xmlns="http://www.w3.org/2000/svg" viewBox="0 0 132.66 78.63">
  <defs>
    <style>
      .cls-1 {
        fill: #fff;
      }
    </style>
  </defs>
  <g id="Capa_1-2" data-name="Capa 1">
    <path class="cls-1" d="M32.26,66.4c.1,4.83,2.14,8.42,3.25,10,.59.85,1.56,1.37,2.59,1.4l24.94.64c1.14.13,2.24.19,3.29.19,13.47,0,19.66-9.64,20.38-10.83L132.02,6.68c.66-.89.82-2.04.43-3.08-.39-1.04-1.27-1.8-2.35-2.04l-6.75-1.48c-1.28-.28-2.59.23-3.35,1.29-4.36,6.11-26.55,37.36-35.38,52.08-8.58,14.3-14.52,11.91-14.77,11.8-.19-.08-.39-.15-.62-.19l-30.88-6.3c3.16-5.15,5.85-11.4,6.96-17.32.38-2,.8-4.69.48-6.68-.09-.56-1.38-4.46-1.68-5.23-4.03-10.42-13.72-11.65-22.96-6.77-7.82,4.14-13.92,12.31-17.46,20.23-.32.71-.07,1.56-1.29,1.3C1.95,49.08-.17,52.93.01,58.38c.13,3.94,1.9,6.28,2.4,9.27,7.76,12.3,21.22,6.77,29.85-1.25ZM87.2,54.99c6.19-10.32,19.03-28.87,27.58-41.04l3.25,1.93.51-.86-3.18-1.89c.24-.34.48-.68.71-1.01l3.2,1.9.51-.86-3.13-1.86c.3-.42.59-.84.87-1.24l3.81,2.26.51-.86-3.74-2.22c1.97-2.79,3.51-4.95,4.36-6.14.06-.08.16-.12.26-.1l6.75,1.48c.09.02.15.07.18.16.03.09.02.17-.03.24l-45.31,61.12c-.06.08-.11.16-.17.26-.66,1.1-6.85,10.73-20.76,9.19-.08,0-.15-.01-.23-.02l-24.95-.64c-.08,0-.16-.04-.21-.11-1.17-1.68-3.6-6.05-2.38-11.85.35-.46.69-.92,1.02-1.39l32.05,6.54c1.42.62,8.99,2.92,18.54-13ZM40.08,44.76c1.15-3.11,2.12-6.3,2.87-9.53l.49,4.07c-.1,1.35-.3,2.7-.5,4.03-.8,5.4-1.94,7.19-4.77,11.44-.99,1.48-1.74,2.58-2.58,3.65-1.17.22-2.19,1.07-2.54,2.26-.1.34-.18.68-.26,1.02-.38.68-1.39,2.45-2.24,1.66-.61-.57,1.64-2.47,1.9-2.86,2-2.9,3.82-6.3,5.24-9.54.73-1.66,1.73-4.41,2.38-6.2ZM32.45,26.17c-.38.35-2.89-1.38-3.69-1.31l-3.94-.58c1.06-1.53,9.16.47,7.62,1.9ZM31.49,27.36l-5.23-1.2c.08-.91,2.47-.49,3-.37.95.22,1.61.89,2.24,1.57ZM2.42,52.39c.31-5.91,2.43-10.46,6.43-14.79,1.13-1.23,8.17-7.51,9.3-6.66l-.72,2.37c1.31-.53,1.39-2.91,1.98-3.37,1.46-1.12,6.27-1.66,8.07-.95,5.58,2.21,4.27,16.77,3.43,21.62-1.19,6.84-2.75,11.29-9.58,13.78-11.63,4.25-10-10.17-8.69-17.27.34-1.86,1.28-3.72,1.57-5.58.08-.51.51-1.66-.35-1.54l-7.68,22.12c-2.14,1.89-2.79.62-3.77-1.14-1.59-2.88-1.07-5.47,0-8.58Z"/>
    <path class="cls-1" d="M16.7,53.61c2.18,4.51,5.23,2.5,6.17-1.52.53-2.25.14-8.01-1.5-9.59-.4-.39-1.49-.65-2.04-.63-3.85.17-3.89,9.12-2.63,11.73Z"/>
    <path class="cls-1" d="M24.82,50.73c-.24,2.31-1.58,3.38-1.9,5.48,6.19-.32,6.35-15.29-.48-14.07,2.29,2.18,2.7,5.59,2.38,8.59Z"/>
    <path class="cls-1" d="M16.24,35.7c-.59,0-1.52,1.83-1.43,1.9.69.54,1.84-.97,1.43-1.9Z"/>
    <path class="cls-1" d="M17.19,33.8h-.95s0,1.43,0,1.43c.69-.16,1.09-.77.95-1.43Z"/>
    <polygon class="cls-1" points="37.26 67.36 38.23 67.11 37.61 64.75 45.86 65.66 45.97 64.67 36.28 63.6 37.26 67.36"/>
  </g>
</svg>