<?xml version="1.0" encoding="UTF-8"?>
<svg id="Layer_2" data-name="Layer 2" xmlns="http://www.w3.org/2000/svg" viewBox="0 0 120.43 36.14">
  <defs>
    <style>
      .cls-1 {
        fill: #fff;
        stroke-width: 0px;
      }
    </style>
  </defs>
  <g id="Layer_1-2" data-name="Layer 1">
    <g>
      <path class="cls-1" d="M17.14.85h7.4v9.11h-7.4c-2.23,0-4.14.78-5.73,2.35-1.59,1.57-2.38,3.46-2.38,5.69v17.29H0v-17.29c0-4.7,1.67-8.73,5.02-12.09C8.36,2.54,12.4.85,17.14.85Z"/>
      <path class="cls-1" d="M62.23,3.63c2.42-2.42,5.32-3.63,8.71-3.63s6.28,1.21,8.68,3.63c2.39,2.42,3.59,5.31,3.59,8.68v22.98h-9.03V12.31c0-.9-.32-1.67-.96-2.31-.64-.64-1.41-.96-2.31-.96s-1.67.32-2.31.96c-.64.64-.96,1.41-.96,2.31v11.52c0,3.37-1.2,6.26-3.59,8.68-2.4,2.42-5.29,3.63-8.68,3.63s-6.28-1.21-8.68-3.63c-2.4-2.42-3.59-5.31-3.59-8.68v-11.52c0-.9-.32-1.67-.96-2.31-.64-.64-1.41-.96-2.31-.96s-1.67.32-2.31.96-.96,1.41-.96,2.31v22.98h-9.03V12.31c0-3.37,1.2-6.26,3.59-8.68,2.39-2.42,5.29-3.63,8.68-3.63s6.3,1.21,8.71,3.63c2.42,2.42,3.63,5.31,3.63,8.68v11.52c0,.9.32,1.66.96,2.28.64.62,1.41.92,2.31.92s1.66-.31,2.28-.92.92-1.38.92-2.28v-11.52c0-3.37,1.21-6.26,3.63-8.68Z"/>
      <path class="cls-1" d="M109.55,13.59c2.99,0,5.55,1.06,7.68,3.17,2.13,2.11,3.2,4.67,3.2,7.68s-1.07,5.57-3.2,7.68c-2.13,2.11-4.7,3.17-7.68,3.17h-21.2v-9.03h21.2c.52,0,.96-.18,1.32-.53s.53-.78.53-1.28-.18-.92-.53-1.28c-.36-.36-.79-.53-1.32-.53h-10.32c-2.99,0-5.55-1.07-7.68-3.2-2.13-2.13-3.2-4.7-3.2-7.68s1.07-5.55,3.2-7.68c2.13-2.13,4.7-3.2,7.68-3.2h16.93v9.11h-16.93c-.52,0-.96.18-1.32.53-.36.36-.53.78-.53,1.28s.18.92.53,1.28c.36.36.79.53,1.32.53h10.32Z"/>
    </g>
  </g>
</svg>