<?xml version="1.0" encoding="UTF-8"?>
<svg id="Capa_2" data-name="Capa 2" xmlns="http://www.w3.org/2000/svg" viewBox="0 0 397.01 73.4">
  <defs>
    <style>
      .cls-1 {
        fill: #f15523;
      }

      .cls-2 {
        fill: #ff6a00;
      }

      .cls-3 {
        fill: #272c2a;
      }

      .cls-4 {
        fill: #ededed;
      }
    </style>
  </defs>
  <g id="Capa_1-2" data-name="Capa 1">
    <g>
      <g>
        <path class="cls-3" d="M34.82,1.73h15.03v18.49h-15.03c-4.53,0-8.4,1.59-11.63,4.77-3.23,3.18-4.84,7.03-4.84,11.56v35.11H0v-35.11c0-9.54,3.4-17.72,10.19-24.56C16.98,5.15,25.19,1.73,34.82,1.73Z"/>
        <path class="cls-3" d="M126.39,7.37c4.91-4.91,10.81-7.37,17.7-7.37s12.76,2.46,17.63,7.37c4.86,4.91,7.3,10.79,7.3,17.63v46.67h-18.35V25c0-1.83-.65-3.4-1.95-4.7-1.3-1.3-2.87-1.95-4.7-1.95s-3.4.65-4.7,1.95c-1.3,1.3-1.95,2.87-1.95,4.7v23.41c0,6.84-2.43,12.71-7.3,17.63-4.87,4.91-10.74,7.37-17.63,7.37s-12.76-2.46-17.63-7.37c-4.86-4.91-7.3-10.79-7.3-17.63v-23.41c0-1.83-.65-3.4-1.95-4.7-1.3-1.3-2.87-1.95-4.7-1.95s-3.4.65-4.7,1.95-1.95,2.87-1.95,4.7v46.67h-18.35V25c0-6.84,2.43-12.71,7.3-17.63,4.86-4.91,10.74-7.37,17.63-7.37s12.79,2.46,17.7,7.37c4.91,4.91,7.37,10.79,7.37,17.63v23.41c0,1.83.65,3.37,1.95,4.62,1.3,1.25,2.86,1.88,4.7,1.88s3.37-.63,4.62-1.88,1.88-2.79,1.88-4.62v-23.41c0-6.84,2.46-12.71,7.37-17.63Z"/>
        <path class="cls-3" d="M222.49,27.6c6.07,0,11.27,2.14,15.6,6.43,4.33,4.29,6.5,9.49,6.5,15.6s-2.17,11.32-6.5,15.6c-4.33,4.29-9.54,6.43-15.6,6.43h-43.06v-18.35h43.06c1.06,0,1.95-.36,2.67-1.08s1.08-1.59,1.08-2.6-.36-1.88-1.08-2.6c-.72-.72-1.61-1.08-2.67-1.08h-20.95c-6.07,0-11.27-2.17-15.6-6.5-4.33-4.33-6.5-9.54-6.5-15.6s2.17-11.27,6.5-15.6c4.33-4.33,9.54-6.5,15.6-6.5h34.39v18.49h-34.39c-1.06,0-1.95.36-2.67,1.08-.72.72-1.08,1.59-1.08,2.6s.36,1.88,1.08,2.6c.72.72,1.61,1.08,2.67,1.08h20.95Z"/>
      </g>
      <g>
        <path class="cls-4" d="M34.82,1.73h15.03v18.49h-15.03c-4.53,0-8.4,1.59-11.63,4.77-3.23,3.18-4.84,7.03-4.84,11.56v35.11H0v-35.11c0-9.54,3.4-17.72,10.19-24.56C16.98,5.15,25.19,1.73,34.82,1.73Z"/>
        <path class="cls-4" d="M126.39,7.37c4.91-4.91,10.81-7.37,17.7-7.37s12.76,2.46,17.63,7.37c4.86,4.91,7.3,10.79,7.3,17.63v46.67h-18.35V25c0-1.83-.65-3.4-1.95-4.7-1.3-1.3-2.87-1.95-4.7-1.95s-3.4.65-4.7,1.95c-1.3,1.3-1.95,2.87-1.95,4.7v23.41c0,6.84-2.43,12.71-7.3,17.63-4.87,4.91-10.74,7.37-17.63,7.37s-12.76-2.46-17.63-7.37c-4.86-4.91-7.3-10.79-7.3-17.63v-23.41c0-1.83-.65-3.4-1.95-4.7-1.3-1.3-2.87-1.95-4.7-1.95s-3.4.65-4.7,1.95-1.95,2.87-1.95,4.7v46.67h-18.35V25c0-6.84,2.43-12.71,7.3-17.63,4.86-4.91,10.74-7.37,17.63-7.37s12.79,2.46,17.7,7.37c4.91,4.91,7.37,10.79,7.37,17.63v23.41c0,1.83.65,3.37,1.95,4.62,1.3,1.25,2.86,1.88,4.7,1.88s3.37-.63,4.62-1.88,1.88-2.79,1.88-4.62v-23.41c0-6.84,2.46-12.71,7.37-17.63Z"/>
        <path class="cls-4" d="M222.49,27.6c6.07,0,11.27,2.14,15.6,6.43,4.33,4.29,6.5,9.49,6.5,15.6s-2.17,11.32-6.5,15.6c-4.33,4.29-9.54,6.43-15.6,6.43h-43.06v-18.35h43.06c1.06,0,1.95-.36,2.67-1.08s1.08-1.59,1.08-2.6-.36-1.88-1.08-2.6c-.72-.72-1.61-1.08-2.67-1.08h-20.95c-6.07,0-11.27-2.17-15.6-6.5-4.33-4.33-6.5-9.54-6.5-15.6s2.17-11.27,6.5-15.6c4.33-4.33,9.54-6.5,15.6-6.5h34.39v18.49h-34.39c-1.06,0-1.95.36-2.67,1.08-.72.72-1.08,1.59-1.08,2.6s.36,1.88,1.08,2.6c.72.72,1.61,1.08,2.67,1.08h20.95Z"/>
      </g>
    </g>
    <g>
      <g>
        <rect class="cls-1" x="256.68" y="54.8" width="4.19" height="16.86"/>
        <polygon class="cls-1" points="274.31 65.09 268.02 54.8 263.8 54.8 263.8 71.66 268 71.66 268 61.45 274.28 71.66 278.5 71.66 278.5 54.8 274.31 54.8 274.31 65.09"/>
        <path class="cls-1" d="M293.03,55.86c-1.33-.71-2.9-1.06-4.71-1.06h-6.89v16.86h6.89c1.81,0,3.38-.36,4.71-1.07,1.32-.71,2.35-1.71,3.08-2.98.73-1.27,1.1-2.73,1.1-4.38s-.37-3.14-1.1-4.41c-.73-1.27-1.76-2.26-3.08-2.96ZM291.64,66.82c-.87.88-2.06,1.33-3.59,1.33h-2.43v-9.83h2.43c1.53,0,2.72.44,3.59,1.31.87.88,1.3,2.08,1.3,3.6s-.43,2.71-1.3,3.59Z"/>
        <path class="cls-1" d="M309.65,65.21c0,.64-.13,1.19-.4,1.65-.27.46-.64.8-1.12,1.04s-1.04.35-1.69.35-1.17-.12-1.64-.35-.83-.58-1.08-1.04c-.26-.46-.39-1.01-.39-1.65v-10.41h-4.19v10.02c0,1.56.33,2.85.99,3.89.66,1.04,1.53,1.81,2.63,2.34,1.09.52,2.3.78,3.61.78.98,0,1.92-.14,2.82-.43.9-.29,1.7-.73,2.4-1.31.7-.59,1.25-1.32,1.65-2.19.4-.88.6-1.9.6-3.07v-10.02h-4.19v10.41Z"/>
        <path class="cls-1" d="M326.93,63.15c-.59-.38-1.24-.69-1.93-.93s-1.37-.47-2.02-.67c-.48-.16-.92-.33-1.32-.51-.4-.18-.72-.38-.95-.6-.23-.22-.35-.51-.35-.87,0-.32.1-.6.3-.84.2-.24.46-.43.78-.55.32-.13.67-.19,1.06-.19.3,0,.61.05.93.16.31.1.58.27.81.49.23.23.37.51.43.87l3.85-.67c-.22-.92-.61-1.68-1.17-2.3s-1.26-1.09-2.11-1.41c-.85-.32-1.82-.48-2.91-.48-1.2,0-2.27.19-3.2.57-.93.38-1.67.94-2.22,1.67-.55.74-.82,1.64-.82,2.7-.02.87.14,1.59.48,2.17s.79,1.05,1.35,1.41,1.17.66,1.83.89c.66.23,1.31.44,1.95.61.58.18,1.09.35,1.53.52.44.17.79.37,1.04.61s.37.56.37.96c0,.5-.2.9-.61,1.22-.41.31-.99.47-1.75.47-.43,0-.83-.06-1.19-.18-.36-.12-.67-.32-.92-.6-.25-.28-.41-.65-.49-1.12l-3.9.77c.19.98.59,1.81,1.2,2.48.61.67,1.39,1.18,2.35,1.53s2.04.52,3.24.52c1.43,0,2.61-.22,3.54-.67.93-.45,1.63-1.05,2.1-1.81.47-.75.7-1.61.7-2.55,0-.88-.18-1.62-.54-2.2-.36-.59-.84-1.07-1.43-1.45Z"/>
        <polygon class="cls-1" points="330.01 58.32 335.24 58.32 335.24 71.66 339.43 71.66 339.43 58.32 344.68 58.32 344.68 54.8 330.01 54.8 330.01 58.32"/>
        <path class="cls-1" d="M356.79,65.34c.79-.31,1.43-.73,1.94-1.26.51-.53.88-1.12,1.13-1.78.25-.66.37-1.32.37-2,0-.98-.23-1.89-.69-2.72s-1.15-1.51-2.07-2.01c-.92-.51-2.08-.76-3.48-.76h-7.76v16.86h4.19v-5.85h2.13l3.36,5.85h4.62l-3.83-6.3s.05-.01.07-.02ZM350.43,58.32h3.3c.75,0,1.32.18,1.69.53.37.35.55.84.55,1.45,0,.42-.08.78-.25,1.08-.17.31-.42.53-.75.69-.33.15-.74.23-1.24.23h-3.3v-3.97Z"/>
        <rect class="cls-1" x="362.56" y="54.8" width="4.19" height="16.86"/>
        <polygon class="cls-1" points="369.69 71.66 382.33 71.66 382.33 68.15 373.88 68.15 373.88 64.75 380.19 64.75 380.19 61.48 373.88 61.48 373.88 58.32 382.33 58.32 382.33 54.8 369.69 54.8 369.69 71.66"/>
        <path class="cls-1" d="M396.47,64.59c-.36-.59-.84-1.07-1.43-1.45-.59-.38-1.24-.69-1.93-.93s-1.37-.47-2.02-.67c-.48-.16-.92-.33-1.32-.51-.4-.18-.72-.38-.95-.6-.23-.22-.35-.51-.35-.87,0-.32.1-.6.3-.84.2-.24.46-.43.78-.55.32-.13.67-.19,1.06-.19.3,0,.61.05.93.16.31.1.58.27.81.49.23.23.37.51.43.87l3.85-.67c-.22-.92-.61-1.68-1.17-2.3s-1.26-1.09-2.11-1.41c-.85-.32-1.82-.48-2.91-.48-1.2,0-2.27.19-3.2.57-.93.38-1.67.94-2.22,1.67-.55.74-.82,1.64-.82,2.7-.02.87.14,1.59.48,2.17s.79,1.05,1.35,1.41,1.17.66,1.83.89c.66.23,1.31.44,1.95.61.58.18,1.09.35,1.53.52.44.17.79.37,1.04.61s.37.56.37.96c0,.5-.2.9-.61,1.22-.41.31-.99.47-1.75.47-.43,0-.83-.06-1.19-.18-.36-.12-.67-.32-.92-.6-.25-.28-.41-.65-.49-1.12l-3.9.77c.19.98.59,1.81,1.2,2.48.61.67,1.39,1.18,2.35,1.53s2.04.52,3.24.52c1.43,0,2.61-.22,3.54-.67.93-.45,1.63-1.05,2.1-1.81.47-.75.7-1.61.7-2.55,0-.88-.18-1.62-.54-2.2Z"/>
      </g>
      <g>
        <rect class="cls-2" x="256.68" y="54.8" width="4.19" height="16.86"/>
        <polygon class="cls-2" points="274.31 65.09 268.02 54.8 263.8 54.8 263.8 71.66 268 71.66 268 61.45 274.28 71.66 278.5 71.66 278.5 54.8 274.31 54.8 274.31 65.09"/>
        <path class="cls-2" d="M293.03,55.86c-1.33-.71-2.9-1.06-4.71-1.06h-6.89v16.86h6.89c1.81,0,3.38-.36,4.71-1.07,1.32-.71,2.35-1.71,3.08-2.98.73-1.27,1.1-2.73,1.1-4.38s-.37-3.14-1.1-4.41c-.73-1.27-1.76-2.26-3.08-2.96ZM291.64,66.82c-.87.88-2.06,1.33-3.59,1.33h-2.43v-9.83h2.43c1.53,0,2.72.44,3.59,1.31.87.88,1.3,2.08,1.3,3.6s-.43,2.71-1.3,3.59Z"/>
        <path class="cls-2" d="M309.65,65.21c0,.64-.13,1.19-.4,1.65-.27.46-.64.8-1.12,1.04s-1.04.35-1.69.35-1.17-.12-1.64-.35-.83-.58-1.08-1.04c-.26-.46-.39-1.01-.39-1.65v-10.41h-4.19v10.02c0,1.56.33,2.85.99,3.89.66,1.04,1.53,1.81,2.63,2.34,1.09.52,2.3.78,3.61.78.98,0,1.92-.14,2.82-.43.9-.29,1.7-.73,2.4-1.31.7-.59,1.25-1.32,1.65-2.19.4-.88.6-1.9.6-3.07v-10.02h-4.19v10.41Z"/>
        <path class="cls-2" d="M326.93,63.15c-.59-.38-1.24-.69-1.93-.93s-1.37-.47-2.02-.67c-.48-.16-.92-.33-1.32-.51-.4-.18-.72-.38-.95-.6-.23-.22-.35-.51-.35-.87,0-.32.1-.6.3-.84.2-.24.46-.43.78-.55.32-.13.67-.19,1.06-.19.3,0,.61.05.93.16.31.1.58.27.81.49.23.23.37.51.43.87l3.85-.67c-.22-.92-.61-1.68-1.17-2.3s-1.26-1.09-2.11-1.41c-.85-.32-1.82-.48-2.91-.48-1.2,0-2.27.19-3.2.57-.93.38-1.67.94-2.22,1.67-.55.74-.82,1.64-.82,2.7-.02.87.14,1.59.48,2.17s.79,1.05,1.35,1.41,1.17.66,1.83.89c.66.23,1.31.44,1.95.61.58.18,1.09.35,1.53.52.44.17.79.37,1.04.61s.37.56.37.96c0,.5-.2.9-.61,1.22-.41.31-.99.47-1.75.47-.43,0-.83-.06-1.19-.18-.36-.12-.67-.32-.92-.6-.25-.28-.41-.65-.49-1.12l-3.9.77c.19.98.59,1.81,1.2,2.48.61.67,1.39,1.18,2.35,1.53s2.04.52,3.24.52c1.43,0,2.61-.22,3.54-.67.93-.45,1.63-1.05,2.1-1.81.47-.75.7-1.61.7-2.55,0-.88-.18-1.62-.54-2.2-.36-.59-.84-1.07-1.43-1.45Z"/>
        <polygon class="cls-2" points="330.01 58.32 335.24 58.32 335.24 71.66 339.43 71.66 339.43 58.32 344.68 58.32 344.68 54.8 330.01 54.8 330.01 58.32"/>
        <path class="cls-2" d="M356.79,65.34c.79-.31,1.43-.73,1.94-1.26.51-.53.88-1.12,1.13-1.78.25-.66.37-1.32.37-2,0-.98-.23-1.89-.69-2.72s-1.15-1.51-2.07-2.01c-.92-.51-2.08-.76-3.48-.76h-7.76v16.86h4.19v-5.85h2.13l3.36,5.85h4.62l-3.83-6.3s.05-.01.07-.02ZM350.43,58.32h3.3c.75,0,1.32.18,1.69.53.37.35.55.84.55,1.45,0,.42-.08.78-.25,1.08-.17.31-.42.53-.75.69-.33.15-.74.23-1.24.23h-3.3v-3.97Z"/>
        <rect class="cls-2" x="362.56" y="54.8" width="4.19" height="16.86"/>
        <polygon class="cls-2" points="369.69 71.66 382.33 71.66 382.33 68.15 373.88 68.15 373.88 64.75 380.19 64.75 380.19 61.48 373.88 61.48 373.88 58.32 382.33 58.32 382.33 54.8 369.69 54.8 369.69 71.66"/>
        <path class="cls-2" d="M396.47,64.59c-.36-.59-.84-1.07-1.43-1.45-.59-.38-1.24-.69-1.93-.93s-1.37-.47-2.02-.67c-.48-.16-.92-.33-1.32-.51-.4-.18-.72-.38-.95-.6-.23-.22-.35-.51-.35-.87,0-.32.1-.6.3-.84.2-.24.46-.43.78-.55.32-.13.67-.19,1.06-.19.3,0,.61.05.93.16.31.1.58.27.81.49.23.23.37.51.43.87l3.85-.67c-.22-.92-.61-1.68-1.17-2.3s-1.26-1.09-2.11-1.41c-.85-.32-1.82-.48-2.91-.48-1.2,0-2.27.19-3.2.57-.93.38-1.67.94-2.22,1.67-.55.74-.82,1.64-.82,2.7-.02.87.14,1.59.48,2.17s.79,1.05,1.35,1.41,1.17.66,1.83.89c.66.23,1.31.44,1.95.61.58.18,1.09.35,1.53.52.44.17.79.37,1.04.61s.37.56.37.96c0,.5-.2.9-.61,1.22-.41.31-.99.47-1.75.47-.43,0-.83-.06-1.19-.18-.36-.12-.67-.32-.92-.6-.25-.28-.41-.65-.49-1.12l-3.9.77c.19.98.59,1.81,1.2,2.48.61.67,1.39,1.18,2.35,1.53s2.04.52,3.24.52c1.43,0,2.61-.22,3.54-.67.93-.45,1.63-1.05,2.1-1.81.47-.75.7-1.61.7-2.55,0-.88-.18-1.62-.54-2.2Z"/>
      </g>
    </g>
  </g>
</svg>