<?xml version="1.0" encoding="utf-8"?>
<!-- Generator: Adobe Illustrator 26.3.1, SVG Export Plug-In . SVG Version: 6.00 Build 0)  -->
<svg version="1.1" id="Capa_1" xmlns="http://www.w3.org/2000/svg" xmlns:xlink="http://www.w3.org/1999/xlink" x="0px" y="0px"
	 viewBox="0 0 100 100" style="enable-background:new 0 0 100 100;" xml:space="preserve">
<style type="text/css">
	.st0{fill:#69AAE0;}
</style>
<g>
	<path class="st0" d="M45.3,80.5c-0.4-2.5-1.1-10.1-0.8-13.6s1-7.3,0.3-7.5c-0.7-0.1-2.8,1.1-3.4,1.2c-0.6,0.1-1.3-0.3-1.8-0.3
		s-1.3,0.2-2.4,0.4c-1.2,0.3-2,0.5-2.8,0.3s-2.5,0.5-4.8-0.3c-2.3-0.7-3.8-5.7-3.4-6.8c0.4-1-1.2-3.3-0.9-5c0.3-1.7,1.7-1.4,3.3-1.9
		c1.6-0.6,5.8-2.2,6.7-2.6c0.9-0.4,0.8-1.4,0.9-2s1.4-2,2.7-3.1c1.4-1.2,3.9-1.5,5.5-2.3c1.5-0.8,1.1-7,1.4-9.3
		c0.3-2.3,2.3-3.4,2.6-3s-0.5,1.2-0.7,3.1s0.5,3.2,1.3,4.8c0.8,1.6,0.9,3.2,1.6,2.9c0.7-0.4,1.5-4.4,2-7.3c0.6-2.9,2.3-5.4,3-5.2
		c0.7,0.2,0.2,2.5,0.5,4.6c0.2,2.1,2.2,5.7,2.8,8.1c0.6,2.5,0.2,7.1,0.2,7.9c0.1,0.8,4.3,7.5,5.3,12.7c1,5.2,1.3,8,2.2,10.4
		c0.9,2.3,2,2.7,3.9,4c1.2,0.8,2.6,2.1,5.1,3.6C81.4,68,85,59.5,85,50.2C85,30.7,69.3,15,50,15S15,30.7,15,50.2
		C15,68,28.2,82.7,45.2,85C45.4,83.3,45.6,82,45.3,80.5z"/>
</g>
</svg>
